<svg width="120" height="120" viewBox="0 0 120 120" xmlns="http://www.w3.org/2000/svg">
  <defs>
    <pattern id="coffee-beans" x="0" y="0" width="120" height="120" patternUnits="userSpaceOnUse">
      <!-- Bean 1 -->
      <path d="M30,30 C34,22 40,20 44,24 C48,28 46,34 38,38 C30,42 24,40 20,36 C16,32 18,26 26,22 C27.5,21.3 28.8,30.8 30,30" fill="#471f3a" />
      
      <!-- Bean 2 (rotated) -->
      <path d="M80,40 C85.5,33.5 92,32 96,36 C100,40 98.5,46.5 92,51 C85.5,55.5 79,54 75,50 C71,46 72.5,39.5 79,35 C80.5,34.3 78.8,40.8 80,40" fill="#471f3a" transform="rotate(45, 85, 43)" />
      
      <!-- Bean 3 -->
      <path d="M50,80 C55.5,73.5 62,72 66,76 C70,80 68.5,86.5 62,91 C55.5,95.5 49,94 45,90 C41,86 42.5,79.5 49,75 C50.5,74.3 48.8,80.8 50,80" fill="#471f3a" transform="rotate(-30, 55, 83)" />
      
      <!-- Bean 4 -->
      <path d="M100,90 C104,82 110,80 114,84 C118,88 116,94 108,98 C100,102 94,100 90,96 C86,92 88,86 96,82 C97.5,81.3 98.8,90.8 100,90" fill="#471f3a" transform="rotate(15, 102, 90)" />
    </pattern>
  </defs>
  
  <rect x="0" y="0" width="120" height="120" fill="url(#coffee-beans)" />
</svg> 